# xmcd
#
# Track frame offsets:
#	182
#	17522
#	30602
#	46672
#	62720
#	84310
#	107862
#	121132
#	141532
#	152915
#	159807
#	171470
#	184292
#	201492
#	217267
#	228097
#	243932
#
# Disc length: 3451
#
# Revision: 1
# Processed by: cddbd v1.5.1PL0 Copyright (c) Steve Scherf et al.
# Submitted via: dBpowerAMP V4.0
# Normalized: r0:TRMNUM
#
DISCID=e80d7911
DTITLE=F JOSÉ - NORDESTINO LUTADOR
DYEAR=1900
DGENRE=FORRÓ
TTITLE0=neguinha
TTITLE1=tem que ser forró
TTITLE2=nordestino lutador
TTITLE3=lembrança de um beijo
TTITLE4=amelinha no forró
TTITLE5=avoante
TTITLE6=tenho muito amor pra dar
TTITLE7=o meu país
TTITLE8=mansa demais
TTITLE9=forró na vila
TTITLE10=desafio
TTITLE11=que nem vem - vem
TTITLE12=forró maneiro
TTITLE13=cheiro de forró
TTITLE14=lembrança
TTITLE15=o mundo não perdoa
TTITLE16=recado
EXTD=
EXTT0=
EXTT1=
EXTT2=
EXTT3=
EXTT4=
EXTT5=
EXTT6=
EXTT7=
EXTT8=
EXTT9=
EXTT10=
EXTT11=
EXTT12=
EXTT13=
EXTT14=
EXTT15=
EXTT16=
PLAYORDER=
